# xmcd
#
# Track frame offsets:
#	150
#	12557
#	26131
#	47432
#	59373
#	71059
#	82567
#	97380
#	108153
#	124826
#	138743
#	154922
#	167779
#	178423
#	196349
#	208227
#	222508
#	239091
#	257737
#	269207
#	284151
#	301433
#
# Disc length: 4399 seconds
#
# Revision: 1
# Processed by: cddbd v1.5PL3 Copyright (c) Steve Scherf et al.
# Submitted via: audiograbber 1.83.01
#
DISCID=68112d16
DTITLE=Red Willow Band - Way Back When
DYEAR=1999
DGENRE=Country
TTITLE0=Wake Me
TTITLE1=Magic Bird
TTITLE2=Old Photos
TTITLE3=Tyin' The Knot
TTITLE4=Arms Around Me
TTITLE5=Battle the Bottle
TTITLE6=You Can't Get There
TTITLE7=Leftover Blues
TTITLE8=Finally Hit Bottom
TTITLE9=Game of Chance
TTITLE10=Beautiful Lie
TTITLE11=Sweet Lovin'
TTITLE12=Cryin' in the Deep Blue Sea
TTITLE13=Snow on Bald Mountain
TTITLE14=Dreams Come True
TTITLE15=Finding My Way
TTITLE16=Today I Smiled Away
TTITLE17=Your Time's A Comin
TTITLE18=The Other Man
TTITLE19=Hell or High Water
TTITLE20=Very Old Friend
TTITLE21=Song Of the Sea
EXTD=
EXTT0=
EXTT1=
EXTT2=
EXTT3=
EXTT4=
EXTT5=
EXTT6=
EXTT7=
EXTT8=
EXTT9=
EXTT10=
EXTT11=
EXTT12=
EXTT13=
EXTT14=
EXTT15=
EXTT16=
EXTT17=
EXTT18=
EXTT19=
EXTT20=
EXTT21=
PLAYORDER=
